<svg width="130" height="129" viewBox="0 0 130 129" fill="none" xmlns="http://www.w3.org/2000/svg">
<g filter="url(#filter0_d_11_2)">
<ellipse cx="61" cy="60.5" rx="55" ry="54.5" fill="#D767CF"/>
<path d="M112.5 60.5C112.5 88.6365 89.4729 111.5 61 111.5C32.5271 111.5 9.5 88.6365 9.5 60.5C9.5 32.3635 32.5271 9.5 61 9.5C89.4729 9.5 112.5 32.3635 112.5 60.5Z" stroke="white" stroke-width="7"/>
</g>
<g filter="url(#filter1_di_11_2)">
<path d="M34.1166 69.0527C27.6923 65.1605 27.6923 55.8395 34.1167 51.9473L65.5682 32.892C72.2327 28.8542 80.75 33.6525 80.75 41.4447V79.5553C80.75 87.3474 72.2327 92.1457 65.5682 88.108L34.1166 69.0527Z" fill="#D767CF"/>
<path d="M34.8939 67.7698C29.4332 64.4614 29.4333 56.5386 34.8939 53.2302L66.3455 34.1749C72.0103 30.7428 79.25 34.8214 79.25 41.4447V79.5553C79.25 86.1786 72.0103 90.2572 66.3455 86.8251L34.8939 67.7698Z" stroke="white" stroke-width="3"/>
</g>
<defs>
<filter id="filter0_d_11_2" x="0.5" y="0.5" width="129" height="128" filterUnits="userSpaceOnUse" color-interpolation-filters="sRGB">
<feFlood flood-opacity="0" result="BackgroundImageFix"/>
<feColorMatrix in="SourceAlpha" type="matrix" values="0 0 0 0 0 0 0 0 0 0 0 0 0 0 0 0 0 0 127 0" result="hardAlpha"/>
<feMorphology radius="4" operator="dilate" in="SourceAlpha" result="effect1_dropShadow_11_2"/>
<feOffset dx="4" dy="4"/>
<feGaussianBlur stdDeviation="2.75"/>
<feComposite in2="hardAlpha" operator="out"/>
<feColorMatrix type="matrix" values="0 0 0 0 0 0 0 0 0 0 0 0 0 0 0 0 0 0 0.25 0"/>
<feBlend mode="normal" in2="BackgroundImageFix" result="effect1_dropShadow_11_2"/>
<feBlend mode="normal" in="SourceGraphic" in2="effect1_dropShadow_11_2" result="shape"/>
</filter>
<filter id="filter1_di_11_2" x="10.4984" y="16.6291" width="89.0516" height="95.7417" filterUnits="userSpaceOnUse" color-interpolation-filters="sRGB">
<feFlood flood-opacity="0" result="BackgroundImageFix"/>
<feColorMatrix in="SourceAlpha" type="matrix" values="0 0 0 0 0 0 0 0 0 0 0 0 0 0 0 0 0 0 127 0" result="hardAlpha"/>
<feOffset dy="4"/>
<feGaussianBlur stdDeviation="9.4"/>
<feComposite in2="hardAlpha" operator="out"/>
<feColorMatrix type="matrix" values="0 0 0 0 0 0 0 0 0 1 0 0 0 0 0.833333 0 0 0 1 0"/>
<feBlend mode="normal" in2="BackgroundImageFix" result="effect1_dropShadow_11_2"/>
<feBlend mode="normal" in="SourceGraphic" in2="effect1_dropShadow_11_2" result="shape"/>
<feColorMatrix in="SourceAlpha" type="matrix" values="0 0 0 0 0 0 0 0 0 0 0 0 0 0 0 0 0 0 127 0" result="hardAlpha"/>
<feOffset dx="13" dy="4"/>
<feGaussianBlur stdDeviation="2.45"/>
<feComposite in2="hardAlpha" operator="arithmetic" k2="-1" k3="1"/>
<feColorMatrix type="matrix" values="0 0 0 0 0 0 0 0 0 0 0 0 0 0 0 0 0 0 0.25 0"/>
<feBlend mode="normal" in2="shape" result="effect2_innerShadow_11_2"/>
</filter>
</defs>
</svg>
