<svg width="130" height="129" viewBox="0 0 130 129" fill="none" xmlns="http://www.w3.org/2000/svg">
<g filter="url(#filter0_d_11_3)">
<ellipse cx="61" cy="60.5" rx="55" ry="54.5" fill="#D767CF"/>
<path d="M112.5 60.5C112.5 88.6365 89.4729 111.5 61 111.5C32.5271 111.5 9.5 88.6365 9.5 60.5C9.5 32.3635 32.5271 9.5 61 9.5C89.4729 9.5 112.5 32.3635 112.5 60.5Z" stroke="white" stroke-width="7"/>
</g>
<g filter="url(#filter1_di_11_3)">
<path d="M86.8834 51.9473C93.3077 55.8395 93.3077 65.1605 86.8833 69.0527L55.4318 88.108C48.7673 92.1458 40.25 87.3475 40.25 79.5553L40.25 41.4447C40.25 33.6526 48.7673 28.8543 55.4318 32.892L86.8834 51.9473Z" fill="#D767CF"/>
<path d="M86.1061 53.2302C91.5668 56.5386 91.5667 64.4614 86.1061 67.7698L54.6545 86.8251C48.9897 90.2572 41.75 86.1786 41.75 79.5553L41.75 41.4447C41.75 34.8214 48.9897 30.7428 54.6545 34.1749L86.1061 53.2302Z" stroke="white" stroke-width="3"/>
</g>
<defs>
<filter id="filter0_d_11_3" x="0.5" y="0.5" width="129" height="128" filterUnits="userSpaceOnUse" color-interpolation-filters="sRGB">
<feFlood flood-opacity="0" result="BackgroundImageFix"/>
<feColorMatrix in="SourceAlpha" type="matrix" values="0 0 0 0 0 0 0 0 0 0 0 0 0 0 0 0 0 0 127 0" result="hardAlpha"/>
<feMorphology radius="4" operator="dilate" in="SourceAlpha" result="effect1_dropShadow_11_3"/>
<feOffset dx="4" dy="4"/>
<feGaussianBlur stdDeviation="2.75"/>
<feComposite in2="hardAlpha" operator="out"/>
<feColorMatrix type="matrix" values="0 0 0 0 0 0 0 0 0 0 0 0 0 0 0 0 0 0 0.25 0"/>
<feBlend mode="normal" in2="BackgroundImageFix" result="effect1_dropShadow_11_3"/>
<feBlend mode="normal" in="SourceGraphic" in2="effect1_dropShadow_11_3" result="shape"/>
</filter>
<filter id="filter1_di_11_3" x="21.45" y="16.6291" width="89.0516" height="95.7417" filterUnits="userSpaceOnUse" color-interpolation-filters="sRGB">
<feFlood flood-opacity="0" result="BackgroundImageFix"/>
<feColorMatrix in="SourceAlpha" type="matrix" values="0 0 0 0 0 0 0 0 0 0 0 0 0 0 0 0 0 0 127 0" result="hardAlpha"/>
<feOffset dy="4"/>
<feGaussianBlur stdDeviation="9.4"/>
<feComposite in2="hardAlpha" operator="out"/>
<feColorMatrix type="matrix" values="0 0 0 0 0 0 0 0 0 1 0 0 0 0 0.833333 0 0 0 1 0"/>
<feBlend mode="normal" in2="BackgroundImageFix" result="effect1_dropShadow_11_3"/>
<feBlend mode="normal" in="SourceGraphic" in2="effect1_dropShadow_11_3" result="shape"/>
<feColorMatrix in="SourceAlpha" type="matrix" values="0 0 0 0 0 0 0 0 0 0 0 0 0 0 0 0 0 0 127 0" result="hardAlpha"/>
<feOffset dx="13" dy="4"/>
<feGaussianBlur stdDeviation="2.45"/>
<feComposite in2="hardAlpha" operator="arithmetic" k2="-1" k3="1"/>
<feColorMatrix type="matrix" values="0 0 0 0 0 0 0 0 0 0 0 0 0 0 0 0 0 0 0.25 0"/>
<feBlend mode="normal" in2="shape" result="effect2_innerShadow_11_3"/>
</filter>
</defs>
</svg>
